<svg version="1" xmlns="http://www.w3.org/2000/svg" width="346.667" height="346.667" viewBox="0 0 260.000000 260.000000"><path d="M105 6c-38.6 8.2-71.8 33.9-88.5 68.5-10.1 20.7-12.9 34.9-12.2 60 .6 18.5 1.3 22.7 6.1 37.2 14.4 43.3 53.4 76.1 99.5 83.8 14.6 2.5 36.7 1.7 50.7-1.9 46.2-11.6 81.3-46.7 93-93.1 3.6-13.9 4.4-36 1.9-50.6C246.7 57 206.9 16.2 153.8 5.5c-11-2.2-37.5-1.9-48.8.5zM91.2 64.1c17.1 3.7 29.8 16.3 30.2 30.1l.1 5.3H98.6l-2.9-5.7C91.8 86.1 85.9 83 75.6 83c-12 .1-18.6 4.7-18.6 13 0 7.4 4.5 9.9 29.5 16.4 19.8 5.2 26.1 8.1 32.6 15.4 5.3 6.1 7.2 12.5 6.7 22.6-.8 15.1-8.4 25-24.1 31.3-5.2 2.1-8.4 2.6-20.2 3-15.8.6-22.5-.5-33.2-5.7-11.8-5.8-20.8-19.2-20.1-29.9l.3-4.6h22.9l1.7 4.7c3.4 9.5 8.6 13.6 19.9 15.8 6.5 1.3 16-.1 20.9-3.1 3.7-2.2 7.1-7.4 7.1-10.9s-3.2-8.4-7.1-10.7c-1.9-1.2-7.9-3.3-13.4-4.8-34.3-9.3-40.4-12.6-46.1-24.2-2.3-4.6-2.8-6.9-2.7-13.2 0-15.7 9.2-27.4 25.5-32.7 8.3-2.6 24.6-3.3 34-1.3zM204.5 66c8.1 3.1 13.9 7.3 18 12.8 3.6 5 6.9 14.4 6.3 18.2-.3 2.5-.3 2.5-12.2 2.5h-11.9l-1.4-4c-2.9-8.4-9.7-12.4-21.1-12.5-12.1 0-18.2 4.4-18.2 13.1 0 7.5 3.8 9.6 29.5 16.3 19.7 5.2 24.5 7.4 31.7 14.8 6 6.2 8.2 13 7.6 23.2-1 14.9-8.8 25.1-24 31.2-5.3 2.2-8.5 2.7-19.8 3.1-16.1.6-22.6-.4-32.5-5.2-13.1-6.3-20.8-16.8-20.9-28.5l-.1-6.5h22.6l2.4 5.8c2.9 7.2 4.8 9.5 10.2 11.9 6.8 3 13.8 3.9 20.8 2.7 7.4-1.3 11.8-3.7 14.5-8.1 2.5-4.2 2.5-7.4 0-11.5-2.7-4.5-8.1-7-26.5-12-18.2-5-26.5-8.5-32.3-13.7-11.8-10.7-11.7-32 .2-44 10-9.9 18.4-12.7 37.6-12.2 11.2.2 14.5.7 19.5 2.6z"/></svg>